<?xml version="1.0" standalone="no"?>
<!DOCTYPE svg PUBLIC "-//W3C//DTD SVG 20010904//EN"
 "http://www.w3.org/TR/2001/REC-SVG-20010904/DTD/svg10.dtd">
<svg version="1.0" xmlns="http://www.w3.org/2000/svg"
 width="700.000000pt" height="700.000000pt" viewBox="0 0 700.000000 700.000000"
 preserveAspectRatio="xMidYMid meet">
<metadata>
Created by potrace 1.11, written by Peter Selinger 2001-2013
</metadata>
<g transform="translate(0.000000,700.000000) scale(0.100000,-0.100000)"
fill="#000000" stroke="none">
<path d="M3789 6716 c-2 -2 -29 -6 -59 -10 -92 -10 -121 -16 -229 -47 -261
-75 -476 -201 -666 -393 -193 -194 -318 -404 -391 -656 -27 -94 -54 -237 -59
-315 -2 -27 -3 -632 -4 -1342 l-1 -1293 -922 0 c-859 0 -925 -1 -957 -18 -62
-31 -76 -62 -75 -160 2 -359 196 -753 505 -1027 94 -83 112 -97 200 -155 258
-169 554 -272 884 -307 121 -13 412 -7 520 11 125 21 267 59 368 98 42 17 80
28 84 24 16 -16 -103 -224 -209 -363 -98 -129 -112 -151 -115 -192 -5 -55 19
-101 69 -131 32 -19 49 -20 563 -16 291 2 539 4 550 4 11 0 261 -2 555 -4 516
-4 536 -3 567 16 64 39 86 113 55 180 -15 30 -94 100 -271 238 -19 15 -46 37
-61 49 -24 19 -127 210 -118 218 2 2 39 18 83 36 561 235 1021 719 1229 1297
39 109 72 220 81 272 3 19 8 42 10 50 5 20 13 64 21 120 3 24 8 56 11 70 8 48
10 406 2 465 -4 33 -11 85 -14 115 -8 65 -39 215 -59 285 -32 111 -40 134 -77
228 -54 135 -127 272 -216 405 -42 62 -74 114 -72 116 2 1 39 24 82 50 238
146 473 376 620 605 94 146 173 331 164 380 -6 29 -81 187 -124 261 -71 123
-136 224 -154 240 -3 3 -18 23 -35 45 -33 46 -31 43 -106 122 -220 233 -464
365 -773 420 -39 7 -1449 16 -1456 9z m1739 -399 c192 -101 382 -297 516 -529
l27 -48 -306 0 -305 0 0 305 c0 168 2 305 4 305 2 0 31 -15 64 -33z m-1435
-316 c15 -6 27 -8 27 -6 0 12 171 -59 234 -97 97 -57 230 -192 288 -293 85
-146 118 -280 113 -455 -9 -303 -177 -571 -448 -714 -115 -61 -215 -86 -362
-92 -164 -6 -325 36 -467 122 -53 32 -200 167 -233 214 -59 84 -109 192 -136
293 l-17 67 625 0 626 0 -7 58 c-30 261 -236 468 -496 498 l-60 7 0 -142 0
-141 -344 0 -344 0 9 40 c22 100 60 188 127 295 40 65 182 198 260 245 82 48
220 99 302 110 74 10 268 4 303 -9z m1973 -566 c-9 -14 -24 -37 -33 -52 -109
-174 -292 -357 -480 -479 -45 -30 -84 -54 -87 -54 -4 0 -6 137 -6 305 l0 305
311 0 311 0 -16 -25z m-537 -1322 c107 -212 173 -435 198 -666 10 -93 10 -364
1 -442 -20 -158 -56 -311 -109 -460 -31 -90 -130 -298 -154 -325 -7 -8 -20
-29 -28 -46 -34 -67 -169 -235 -268 -335 -158 -158 -324 -278 -522 -376 -72
-36 -217 -95 -262 -107 -5 -2 -17 -6 -25 -9 -28 -12 -225 -56 -280 -62 -30 -4
-77 -10 -105 -15 -27 -4 -126 -6 -220 -4 -188 3 -182 3 -245 15 -25 4 -61 11
-80 14 -47 7 -111 22 -116 28 -3 2 10 15 28 29 52 40 180 168 231 231 109 135
242 358 272 457 4 14 11 30 15 35 3 6 14 33 24 60 10 28 21 59 25 70 40 101
98 361 117 521 3 27 7 62 9 79 4 26 12 135 19 242 1 18 4 34 7 36 2 3 33 7 69
10 191 18 395 78 567 168 314 164 558 453 672 796 16 48 32 102 36 118 3 17
11 48 16 69 l11 40 28 -46 c16 -26 47 -82 69 -125z m-1769 -3128 c85 -1 184 1
220 5 36 4 66 6 68 4 8 -6 -80 -148 -108 -174 -3 -3 -25 -31 -49 -62 -24 -32
-47 -58 -52 -58 -8 0 -193 141 -209 160 -3 3 -22 18 -43 33 -20 16 -47 47 -58
69 l-21 41 49 -8 c26 -4 118 -8 203 -10z"/>
</g>
</svg>
